<svg width="24" height="24" viewBox="0 0 24 24" fill="none" xmlns="http://www.w3.org/2000/svg">
<path fill-rule="evenodd" clip-rule="evenodd" d="M2.39999 4.59997C2.39999 4.04769 2.84771 3.59998 3.39999 3.59998H20.6C21.1523 3.59998 21.6 4.04769 21.6 4.59998V7.39998C21.6 7.95226 21.1523 8.39998 20.6 8.39998H20.4V12C20.4 16.6392 16.6392 20.4 12 20.4C7.3608 20.4 3.59999 16.6392 3.59999 12V8.39998H3.39999C2.84771 8.39998 2.39999 7.95226 2.39999 7.39998V4.59997ZM18.4 8.39998H5.59999V12C5.59999 15.5346 8.46537 18.4 12 18.4C15.5346 18.4 18.4 15.5346 18.4 12V8.39998ZM12 16.8C13.3255 16.8 14.4 15.7255 14.4 14.4C14.4 13.0745 13.3255 12 12 12C10.6745 12 9.59999 13.0745 9.59999 14.4C9.59999 15.7255 10.6745 16.8 12 16.8Z" fill="#7D8B92"/>
</svg>
