<svg width="32" height="32" viewBox="0 0 32 32" fill="none" xmlns="http://www.w3.org/2000/svg">
<g clip-path="url(#clip0_2_36)">
<path d="M28.6316 18.9608V18.807V12.3509V12.0702V5.33333V5.05263C28.6316 4.95046 28.5968 4.86007 28.5496 4.77754C27.9001 2.36912 23.0613 0 14.5965 0C6.13165 0 1.29291 2.36912 0.643366 4.77754C0.596208 4.86007 0.561401 4.95046 0.561401 5.05263V5.33333V12.0702V12.3509V18.807V19.0877V25.8246C0.561401 25.9155 0.58498 26.0014 0.627086 26.0778C1.28954 28.8258 7.22189 30.8772 14.5965 30.8772C16.3739 30.8772 18.1036 30.7537 19.7479 30.5162C20.9718 31.4431 22.4904 32 24.1403 32C28.1645 32 31.4386 28.7259 31.4386 24.7018C31.4386 22.3719 30.3371 20.2981 28.6316 18.9608ZM26.8065 17.9149C26.7279 17.8841 26.6487 17.8566 26.5695 17.8279C26.3949 17.7662 26.2175 17.7112 26.0373 17.6623C25.9475 17.6382 25.8582 17.6135 25.7679 17.5927C25.5843 17.5506 25.3979 17.5186 25.2093 17.4905C25.1262 17.4782 25.0442 17.4619 24.9606 17.4524C24.6905 17.4226 24.4177 17.4035 24.1403 17.4035C23.9074 17.4035 23.6777 17.417 23.4498 17.4389C23.374 17.4462 23.2999 17.4585 23.2247 17.4675C23.0737 17.4866 22.9232 17.5079 22.775 17.5366C22.6891 17.5528 22.6049 17.5719 22.5207 17.5916C22.3832 17.623 22.2473 17.6578 22.1126 17.6971C22.0306 17.7207 21.9486 17.7448 21.8678 17.7718C21.7263 17.8184 21.5871 17.8706 21.4495 17.9251C21.3827 17.9514 21.3148 17.9761 21.2491 18.0048C21.0633 18.0851 20.8814 18.1726 20.704 18.2675C20.69 18.2754 20.6748 18.2815 20.6602 18.2894C20.4592 18.3989 20.265 18.5179 20.0758 18.6448C20.055 18.6588 20.0354 18.6745 20.0146 18.6891C19.8518 18.8008 19.694 18.9193 19.5408 19.0439C19.5032 19.0742 19.4678 19.1062 19.4307 19.1377C19.2966 19.2516 19.1663 19.3695 19.0406 19.4925C19.0024 19.5301 18.9648 19.5677 18.9272 19.6065C18.8065 19.73 18.6902 19.858 18.5785 19.9905C18.5443 20.0309 18.5095 20.0702 18.4763 20.1112C18.3629 20.2509 18.2563 20.3947 18.153 20.5429C18.1272 20.5799 18.0996 20.6153 18.0749 20.6523C17.9531 20.8348 17.8369 21.0223 17.7314 21.2171C17.7229 21.2323 17.7162 21.248 17.7078 21.2632C17.614 21.4389 17.5265 21.6196 17.4467 21.8044C17.4001 21.9116 17.3608 22.0233 17.3187 22.1333C17.285 22.2232 17.2497 22.3124 17.2194 22.4039C17.1756 22.5347 17.1385 22.6689 17.102 22.8031C17.0902 22.8463 17.0751 22.8873 17.0644 22.9311C16.841 22.9462 16.617 22.9597 16.3924 22.9704C16.2425 22.9777 16.0938 22.9872 15.9439 22.9928C15.4947 23.0074 15.045 23.0175 14.5965 23.0175C14.1322 23.0175 13.6775 23.0086 13.2312 22.9928C12.9606 22.9827 12.6995 22.9653 12.4356 22.9502C12.2689 22.9406 12.0971 22.9345 11.9332 22.9227C11.5829 22.8974 11.2427 22.8648 10.9064 22.83C10.839 22.8227 10.7683 22.8182 10.7015 22.8109C10.3163 22.7688 9.94133 22.7206 9.57586 22.6672C9.56238 22.6655 9.54835 22.6639 9.53544 22.6622C7.63845 22.382 6.01038 21.9548 4.73656 21.4467C4.72702 21.4428 4.71691 21.4394 4.70793 21.4355C4.47551 21.3418 4.25712 21.2458 4.04884 21.1469C4.02245 21.1346 3.99438 21.1222 3.968 21.1093C3.78105 21.0195 3.6087 20.9269 3.44309 20.8337C3.4021 20.8101 3.35887 20.7871 3.31902 20.7635C3.1753 20.6793 3.04393 20.5928 2.91817 20.5064C2.86821 20.4716 2.81712 20.4373 2.77052 20.4025C2.66498 20.3245 2.56954 20.2453 2.47859 20.1662C2.42694 20.1213 2.37586 20.0764 2.32926 20.0309C2.25459 19.9585 2.18947 19.886 2.12772 19.8136C2.0828 19.7608 2.04014 19.7081 2.00196 19.6547C1.95312 19.5868 1.91158 19.5189 1.87452 19.4509C1.84365 19.3942 1.81614 19.3375 1.79256 19.2808C1.76561 19.214 1.74428 19.1472 1.72856 19.081C1.70723 18.9895 1.68421 18.898 1.68421 18.807V14.1996C1.69431 14.2086 1.7061 14.2175 1.71621 14.2265C1.84645 14.3416 1.98007 14.4561 2.13052 14.5662C4.24814 16.1634 8.47438 17.4035 14.5965 17.4035C20.7046 17.4035 24.9241 16.169 27.0467 14.5774C27.2095 14.4584 27.3555 14.3354 27.4953 14.2108C27.4998 14.2069 27.5048 14.2029 27.5088 14.199V18.2305C27.479 18.2147 27.447 18.2046 27.4167 18.1889C27.218 18.089 27.0147 17.9969 26.8065 17.9149ZM2.02161 7.74568C2.19003 7.87818 2.37193 8.00898 2.56898 8.13642C2.60996 8.16281 2.656 8.18863 2.69866 8.21502C2.86372 8.31775 3.03831 8.41825 3.22189 8.51705C3.28982 8.55354 3.35775 8.58947 3.42793 8.6254C3.63284 8.72983 3.84786 8.83088 4.0741 8.92968C4.11116 8.94596 4.14484 8.96281 4.18245 8.97853C4.44575 9.09025 4.72533 9.19691 5.01614 9.29965C5.09642 9.32828 5.18063 9.35523 5.26316 9.3833C5.49445 9.46133 5.73361 9.536 5.98119 9.60842C6.07045 9.63425 6.15803 9.66119 6.24954 9.68646C6.57796 9.7774 6.91705 9.86386 7.27298 9.94358C7.32182 9.95481 7.37459 9.96435 7.424 9.97502C7.73782 10.0435 8.06344 10.1069 8.39803 10.1659C8.51144 10.1861 8.62652 10.2052 8.74217 10.2243C9.06049 10.2765 9.38835 10.3248 9.72463 10.3686C9.81108 10.3798 9.89361 10.3921 9.98119 10.4034C10.3989 10.4539 10.8312 10.4971 11.2752 10.5342C11.3847 10.5432 11.4987 10.5499 11.6098 10.5578C11.9652 10.5836 12.3284 10.6049 12.7001 10.6218C12.8354 10.6279 12.9701 10.6341 13.1082 10.6386C13.5927 10.6549 14.0856 10.6667 14.5965 10.6667C15.1074 10.6667 15.6003 10.6549 16.0842 10.6386C16.2218 10.6341 16.3565 10.6274 16.4923 10.6218C16.864 10.6049 17.2272 10.5836 17.5826 10.5578C17.6938 10.5493 17.8072 10.5432 17.9172 10.5342C18.3613 10.4977 18.7935 10.4539 19.2112 10.4034C19.2988 10.3927 19.3813 10.3798 19.4678 10.3686C19.8041 10.3248 20.1314 10.2765 20.4502 10.2243C20.5659 10.2052 20.681 10.1861 20.7944 10.1659C21.129 10.1069 21.4546 10.0435 21.7684 9.97502C21.8178 9.96435 21.8706 9.95481 21.9194 9.94358C22.2754 9.86386 22.6145 9.7774 22.9429 9.68646C23.0344 9.66119 23.122 9.63481 23.2112 9.60842C23.4588 9.53656 23.698 9.46133 23.9293 9.3833C24.0118 9.35523 24.096 9.32828 24.1763 9.29965C24.4671 9.19635 24.7472 9.08968 25.01 8.97853C25.0476 8.96281 25.0813 8.9454 25.1183 8.92968C25.3446 8.83088 25.5596 8.72983 25.7645 8.6254C25.8347 8.58947 25.9032 8.55354 25.9705 8.51705C26.1541 8.41881 26.3287 8.31832 26.4937 8.21502C26.5364 8.18863 26.5825 8.16281 26.6234 8.13642C26.8205 8.00898 27.0024 7.87874 27.1708 7.74568C27.2129 7.712 27.2505 7.67832 27.2915 7.64463C27.3645 7.584 27.4414 7.52393 27.5088 7.46274V12.0702C27.5088 12.1617 27.4857 12.2538 27.4639 12.3458C27.4481 12.4115 27.4274 12.4766 27.401 12.5429C27.3774 12.6007 27.3493 12.6585 27.3179 12.7164C27.2808 12.7832 27.2404 12.85 27.1927 12.9168C27.154 12.9707 27.1102 13.0246 27.0647 13.079C27.0041 13.1503 26.9395 13.2216 26.8665 13.2924C26.8188 13.3389 26.7666 13.385 26.7138 13.431C26.624 13.5091 26.5302 13.5871 26.4258 13.664C26.3775 13.6999 26.3248 13.7353 26.2737 13.7707C26.149 13.8566 26.0194 13.9419 25.8773 14.025C25.8358 14.0497 25.7914 14.0738 25.7482 14.098C25.5843 14.1906 25.413 14.2821 25.2283 14.3714C25.2008 14.3843 25.1705 14.3978 25.1425 14.4112C24.9353 14.5089 24.7192 14.6049 24.4879 14.6975C24.4772 14.7015 24.466 14.706 24.4553 14.7099C23.1815 15.2174 21.5551 15.6446 19.6592 15.9248C19.6458 15.9265 19.6312 15.9281 19.6177 15.9304C19.2522 15.9837 18.8778 16.032 18.4932 16.0741C18.4258 16.0814 18.3551 16.0865 18.2872 16.0932C17.9509 16.128 17.6112 16.1606 17.2615 16.1858C17.097 16.1976 16.9252 16.2038 16.7579 16.2133C16.4946 16.2285 16.2335 16.2465 15.9629 16.256C15.5155 16.2717 15.0608 16.2807 14.5965 16.2807C14.1322 16.2807 13.6775 16.2717 13.2312 16.256C12.9606 16.2459 12.6995 16.2285 12.4356 16.2133C12.2689 16.2038 12.0971 16.1976 11.9332 16.1858C11.5829 16.1606 11.2427 16.128 10.9064 16.0932C10.839 16.0859 10.7683 16.0814 10.7015 16.0741C10.3163 16.032 9.94133 15.9837 9.57586 15.9304C9.56238 15.9287 9.54835 15.927 9.53544 15.9253C7.63845 15.6452 6.01038 15.218 4.73656 14.7099C4.72702 14.706 4.71691 14.7026 4.70793 14.6987C4.47551 14.6049 4.25712 14.5089 4.04884 14.4101C4.02245 14.3978 3.99438 14.3854 3.968 14.3725C3.78105 14.2827 3.6087 14.19 3.44309 14.0968C3.4021 14.0733 3.35887 14.0502 3.31902 14.0267C3.1753 13.9425 3.04393 13.856 2.91817 13.7695C2.86821 13.7347 2.81712 13.7005 2.77052 13.6657C2.66498 13.5876 2.56954 13.5085 2.47859 13.4293C2.42694 13.3844 2.37586 13.3395 2.32926 13.294C2.25459 13.2216 2.18947 13.1492 2.12772 13.0768C2.0828 13.024 2.04014 12.9712 2.00196 12.9179C1.95312 12.85 1.91158 12.782 1.87452 12.7141C1.84365 12.6574 1.81614 12.6007 1.79256 12.544C1.76561 12.4772 1.74428 12.4104 1.72856 12.3441C1.70723 12.2526 1.68421 12.1611 1.68421 12.0702V7.46274C1.75158 7.52393 1.82849 7.584 1.90147 7.64463C1.94189 7.67832 1.97951 7.712 2.02161 7.74568ZM14.5965 1.12281C22.2057 1.12281 27.5088 3.34147 27.5088 5.33333C27.5088 7.32519 22.2057 9.54386 14.5965 9.54386C6.98723 9.54386 1.68421 7.32519 1.68421 5.33333C1.68421 3.34147 6.98723 1.12281 14.5965 1.12281ZM14.5965 29.7544C7.27747 29.7544 2.02049 27.6755 1.70217 25.7336C1.69768 25.7084 1.69207 25.6836 1.68421 25.6601V20.9364C1.69431 20.9454 1.7061 20.9544 1.71621 20.9634C1.84645 21.0785 1.98007 21.193 2.13052 21.303C4.24814 22.9002 8.47438 24.1404 14.5965 24.1404C15.0439 24.1404 15.4925 24.1297 15.9405 24.114C16.0747 24.1095 16.2077 24.1022 16.3419 24.096C16.5182 24.0881 16.6956 24.0831 16.8713 24.0724C16.8522 24.2858 16.8421 24.4957 16.8421 24.7018C16.8421 24.9404 16.8556 25.1773 16.878 25.4119C16.8853 25.4877 16.8994 25.5618 16.9089 25.6365C16.9291 25.7948 16.9505 25.9526 16.9813 26.1081C16.9976 26.1906 17.0189 26.2709 17.038 26.3528C17.0723 26.4994 17.1076 26.6453 17.1503 26.7896C17.1733 26.8671 17.2003 26.9429 17.2261 27.0198C17.2749 27.1652 17.3266 27.3095 17.3844 27.4521C17.4125 27.5211 17.4422 27.5885 17.4726 27.6559C17.5371 27.8018 17.6062 27.9455 17.6803 28.087C17.7123 28.1471 17.7448 28.2072 17.778 28.2667C17.8582 28.4093 17.943 28.5491 18.0328 28.686C18.0688 28.7411 18.1047 28.7955 18.1418 28.8494C18.2349 28.9836 18.3332 29.1138 18.4354 29.2418C18.4775 29.2952 18.5196 29.3485 18.5634 29.4001C18.5987 29.4422 18.6307 29.4872 18.6672 29.5287C17.3547 29.678 15.9905 29.7544 14.5965 29.7544ZM24.1403 30.8772C22.6582 30.8772 21.2968 30.3512 20.2313 29.4782C20.0668 29.3429 19.9102 29.2003 19.762 29.0515C19.7013 28.9903 19.6463 28.9241 19.5885 28.8606C19.5037 28.768 19.4184 28.6754 19.3398 28.5782C19.273 28.4957 19.2118 28.4093 19.1489 28.3234C19.0866 28.238 19.0248 28.1527 18.9676 28.0646C18.9075 27.9725 18.8514 27.8782 18.7963 27.7833C18.7441 27.6929 18.6942 27.602 18.6465 27.5093C18.5976 27.4139 18.5505 27.3173 18.5067 27.2191C18.4612 27.118 18.4202 27.0153 18.3809 26.912C18.3444 26.8182 18.3085 26.7239 18.2765 26.6279C18.2383 26.5112 18.2063 26.3921 18.1749 26.2731C18.1519 26.1855 18.126 26.0985 18.1069 26.0093C18.0766 25.8689 18.0553 25.7263 18.0351 25.5832C18.0244 25.5107 18.0098 25.4394 18.002 25.3653C17.9784 25.1458 17.9649 24.9246 17.9649 24.7018C17.9649 24.5092 17.9767 24.3194 17.9941 24.1308C18.0121 23.9467 18.0385 23.7597 18.0744 23.5672C18.1025 23.415 18.1395 23.2668 18.1782 23.1192C18.1889 23.0782 18.1985 23.0372 18.2097 22.9962C18.245 22.8727 18.2866 22.752 18.3287 22.6324C18.3523 22.5667 18.3753 22.5011 18.4006 22.4359C18.4399 22.3366 18.4825 22.2383 18.5269 22.1418C18.565 22.0581 18.6049 21.9745 18.647 21.8925C18.6874 21.8139 18.729 21.7364 18.7722 21.6595C18.8283 21.5607 18.8879 21.4641 18.949 21.3687C18.9867 21.3098 19.0237 21.2508 19.0636 21.193C19.1422 21.0796 19.2258 20.9695 19.3117 20.8618C19.3415 20.8247 19.369 20.7865 19.3993 20.75C19.5161 20.6097 19.6385 20.4744 19.7676 20.3447C19.7709 20.3413 19.7738 20.338 19.7771 20.3346C20.05 20.0623 20.3486 19.8159 20.6681 19.5975C20.7046 19.5728 20.7433 19.5503 20.7803 19.5262C20.8994 19.4487 21.0206 19.374 21.1453 19.3044C21.2025 19.2724 21.2609 19.2438 21.3187 19.214C21.4271 19.1579 21.5371 19.104 21.6488 19.0546C21.7173 19.0243 21.7864 18.9962 21.856 18.9681C21.9627 18.9255 22.071 18.8862 22.1805 18.8491C22.2552 18.8244 22.3298 18.7997 22.4056 18.7778C22.5162 18.7453 22.629 18.7178 22.7419 18.6914C22.8171 18.674 22.8923 18.6554 22.9687 18.6403C23.0933 18.6161 23.2202 18.5987 23.3476 18.5819C23.4145 18.5735 23.4801 18.5617 23.5469 18.5555C23.7429 18.5375 23.9399 18.5263 24.1403 18.5263C24.3318 18.5263 24.5204 18.5381 24.7074 18.5549C24.7657 18.56 24.8236 18.5679 24.882 18.5752C25.0133 18.5909 25.143 18.6111 25.2716 18.6347C25.3339 18.6465 25.3962 18.6577 25.4585 18.6712C25.5955 18.7009 25.7302 18.7368 25.8633 18.7756C25.9082 18.7885 25.9537 18.7992 25.998 18.8126C26.1625 18.8648 26.3231 18.9249 26.4814 18.99C26.5572 19.0215 26.6307 19.0568 26.7054 19.0911C26.7919 19.1309 26.8772 19.1714 26.9614 19.2146C27.045 19.2578 27.1276 19.3033 27.2095 19.3505C27.2797 19.3909 27.3476 19.433 27.4161 19.4762C27.5009 19.5295 27.5857 19.5823 27.6682 19.6401C29.266 20.7573 30.3158 22.6083 30.3158 24.7018C30.3158 28.1067 27.5453 30.8772 24.1403 30.8772Z" fill="#7D8B92"/>
<path d="M21 21L28 28" stroke="#B65B5D" stroke-width="2"/>
<path d="M21 28L28 21" stroke="#B65B5D" stroke-width="2"/>
</g>
<defs>
<clipPath id="clip0_2_36">
<rect width="32" height="32" fill="white"/>
</clipPath>
</defs>
</svg>
